<?xml version="1.0" encoding="UTF-8"?>
<!DOCTYPE svg PUBLIC "-//W3C//DTD SVG 1.1//EN" "http://www.w3.org/Graphics/SVG/1.1/DTD/svg11.dtd">
<!-- Creator: CorelDRAW 2019 (64-Bit) -->
<svg xmlns="http://www.w3.org/2000/svg" xml:space="preserve" width="200mm" height="200mm" version="1.1" style="shape-rendering:geometricPrecision; text-rendering:geometricPrecision; image-rendering:optimizeQuality; fill-rule:evenodd; clip-rule:evenodd"
viewBox="0 0 20000 20000"
 xmlns:xlink="http://www.w3.org/1999/xlink"
 xmlns:xodm="http://www.corel.com/coreldraw/odm/2003">
 <defs>
  <style type="text/css">
   <![CDATA[
    .fil3 {fill:#03AE63;fill-rule:nonzero}
    .fil1 {fill:#2B2B2A;fill-rule:nonzero}
    .fil0 {fill:#C6C7C7;fill-rule:nonzero}
    .fil2 {fill:#E82C5E;fill-rule:nonzero}
   ]]>
  </style>
 </defs>
 <g id="Layer_x0020_1">
  <metadata id="CorelCorpID_0Corel-Layer"/>
  <g id="_2498083966304">
   <path class="fil0" d="M9401.67 4606c0,-36.84 -29.9,-66.72 -66.75,-66.72 -36.81,0 -66.71,29.88 -66.71,66.72 0,36.84 29.9,66.71 66.71,66.71 36.85,0 66.75,-29.87 66.75,-66.71z"/>
   <path class="fil0" d="M10269.25 8270.53c0,-36.84 -29.91,-66.72 -66.72,-66.72 -36.84,0 -66.74,29.88 -66.74,66.72 0,36.84 29.9,66.71 66.74,66.71 36.81,0 66.72,-29.87 66.72,-66.71z"/>
   <polygon class="fil0" points="9319.92,4672.71 9319.92,5879.96 10187.31,6747.35 10187.31,8275.75 10217.33,8275.75 10217.33,6734.89 9349.94,5867.53 9349.94,4672.71 "/>
   <path class="fil0" d="M7833.62 7196.77c0,-36.84 -29.88,-66.72 -66.72,-66.72 -36.84,0 -66.72,29.88 -66.72,66.72 0,36.84 29.88,66.72 66.72,66.72 36.84,0 66.72,-29.88 66.72,-66.72z"/>
   <path class="fil0" d="M9882.01 8270.53c0,-36.84 -29.91,-66.72 -66.74,-66.72 -36.81,0 -66.72,29.88 -66.72,66.72 0,36.84 29.91,66.71 66.72,66.71 36.83,0 66.74,-29.87 66.74,-66.71z"/>
   <polygon class="fil0" points="9815.27,8255.52 8324.35,8255.52 7787.89,7719.08 7787.89,7231.24 7757.86,7231.24 7757.86,7731.52 8311.91,8285.53 9815.27,8285.53 "/>
   <path class="fil0" d="M8173.65 8270.53c0,-36.84 -29.91,-66.72 -66.72,-66.72 -36.84,0 -66.74,29.88 -66.74,66.72 0,36.84 29.9,66.71 66.74,66.71 36.81,0 66.72,-29.87 66.72,-66.71z"/>
   <path class="fil0" d="M5348.29 5039.68c0,-36.81 -29.9,-66.72 -66.75,-66.72 -36.81,0 -66.71,29.91 -66.71,66.72 0,36.87 29.9,66.74 66.71,66.74 36.85,0 66.75,-29.87 66.75,-66.74z"/>
   <polygon class="fil0" points="5266.54,5039.68 5266.54,6079.41 6911.97,7724.85 7537.69,7724.85 8093.75,8280.91 8114.98,8259.69 7550.12,7694.83 6924.39,7694.83 5296.56,6066.99 5296.56,5039.68 "/>
   <path class="fil0" d="M6067.06 9391.18c0,-36.84 -29.87,-66.71 -66.72,-66.71 -36.83,0 -66.71,29.87 -66.71,66.71 0,36.84 29.88,66.72 66.71,66.72 36.85,0 66.72,-29.88 66.72,-66.72z"/>
   <path class="fil0" d="M7650.25 9904.64c0,-36.84 -29.9,-66.68 -66.75,-66.68 -36.81,0 -66.71,29.84 -66.71,66.68 0,36.87 29.9,66.72 66.71,66.72 36.85,0 66.75,-29.85 66.75,-66.72z"/>
   <polygon class="fil0" points="5991.34,9398.03 6513.98,9920.67 7633.46,9920.67 7633.46,9890.65 6526.42,9890.65 6012.56,9376.79 "/>
   <polygon class="fil0" points="3856.34,7186.47 3856.34,9626.36 5970.14,9626.36 6520.38,10176.6 7607.89,10176.6 7607.89,10146.58 6532.81,10146.58 5982.57,9596.34 3886.37,9596.34 3886.37,7186.47 "/>
   <polygon class="fil0" points="5131.78,11289.85 5809.8,11289.85 6548.78,10550.87 7601.46,10550.87 7601.46,10520.84 6536.35,10520.84 5797.38,11259.82 5131.78,11259.82 "/>
   <polygon class="fil0" points="7582.28,10696.82 6661.1,10696.82 6175.69,11182.27 6175.69,12049.03 6205.71,12049.03 6205.71,11194.69 6673.56,10726.85 7582.28,10726.85 "/>
   <polygon class="fil0" points="11646.83,10399.15 12653.8,10399.15 13118.59,9934.39 13097.58,9913.13 12641.49,10369.13 11646.83,10369.13 "/>
   <polygon class="fil0" points="11141.42,8302.41 11141.42,7837.02 12653.8,7837.02 13514.62,6976.3 14609.34,6976.3 14609.34,6946.27 13502.31,6946.27 12641.49,7806.97 11111.39,7807 11111.39,8302.41 "/>
   <polygon class="fil0" points="14584.42,4609.33 14584.42,6736.13 13462.08,6736.13 12586.55,7611.87 10901.24,7611.87 10901.24,8302.41 10931.27,8302.41 10931.27,7641.89 12598.86,7641.89 13474.69,6766.15 14614.44,6766.15 14614.44,4609.33 "/>
   <polygon class="fil0" points="12078.55,10619.35 15201.27,10619.35 15201.27,10649.38 12078.55,10649.38 "/>
   <polygon class="fil0" points="7558.43,11785.32 7558.43,13630.65 6511.34,14677.72 5041.34,14677.72 5041.34,14707.74 6523.77,14707.74 7588.46,13643.09 7588.46,11785.32 "/>
   <polygon class="fil0" points="8148.94,11795.32 8178.96,11795.32 8178.96,13746.95 8148.94,13746.95 "/>
   <polygon class="fil0" points="9219.81,11805.34 9219.81,12382.03 9634.58,12796.78 9655.81,12775.51 9249.84,12369.61 9249.84,11805.34 "/>
   <polygon class="fil0" points="12438.84,11049.71 13283.28,11049.71 13734.25,11500.71 13755.57,11479.45 13295.88,11019.68 12438.84,11019.68 "/>
   <polygon class="fil0" points="11541.77,12315.62 11541.77,12842.26 12772.7,14073.28 12772.7,14891.55 12316.93,15347.51 12337.94,15368.77 12802.73,14903.99 12802.73,14060.85 11571.79,12829.82 11571.79,12315.62 "/>
   <polygon class="fil0" points="12233.69,12058.87 12233.69,12575.51 13579.92,13921.66 13579.92,14807.39 14196.64,15424.2 15100.99,15424.2 15100.99,15394.18 14208.94,15394.18 13609.95,14794.97 13609.95,13909.23 12263.71,12563.09 12263.71,12058.87 "/>
   <polygon class="fil0" points="11396.65,4984.65 9680.22,4984.65 9680.22,5796.55 10610.99,6727.33 10610.99,8252.39 10641.02,8252.39 10641.02,6714.9 9710.24,5784.12 9710.24,5014.67 11396.65,5014.67 "/>
   <polygon class="fil0" points="932.96,5878.22 932.96,7181.36 2297.62,8546.01 3586.03,8546.01 3586.03,8515.98 2310.06,8515.98 962.98,7168.9 962.98,5878.22 "/>
   <polygon class="fil0" points="697.14,10240.59 697.14,11301.97 2745.93,11301.97 2745.93,11271.95 727.17,11271.95 727.17,10240.59 "/>
   <polygon class="fil0" points="2878.58,11566.71 1095.07,11566.71 1095.07,12775.48 1125.09,12775.48 1125.09,11596.73 2878.58,11596.73 "/>
   <path class="fil0" d="M2940.25 11575.14c0,-36.84 -29.84,-66.71 -66.71,-66.71 -36.87,0 -66.72,29.87 -66.72,66.71 0,36.87 29.85,66.75 66.72,66.75 36.87,0 66.71,-29.88 66.71,-66.75z"/>
   <path class="fil0" d="M1168.78 12776.14c0,-36.84 -29.85,-66.71 -66.72,-66.71 -36.87,0 -66.72,29.87 -66.72,66.71 0,36.87 29.85,66.75 66.72,66.75 36.87,0 66.72,-29.88 66.72,-66.75z"/>
   <polygon class="fil0" points="15696.09,12409.54 16895.59,12409.54 17798.03,13312.18 17834.59,13306.2 16907.9,12379.51 15696.09,12379.51 "/>
   <path class="fil0" d="M15762.74 12405.91c0,-36.85 -30.02,-66.72 -66.65,-66.72 -36.93,0 -66.66,29.87 -66.66,66.72 0,36.83 29.73,66.74 66.66,66.74 36.63,0 66.65,-29.91 66.65,-66.74z"/>
   <polygon class="fil0" points="15358.01,9088.23 17012.4,9088.23 18724.42,10800.1 19285.89,10800.1 19285.89,10153.78 19255.86,10153.78 19255.86,10770.08 18736.73,10770.08 17024.7,9058.2 15358.01,9058.2 "/>
   <path class="fil0" d="M19337.53 10153.75c0,-36.81 -29.73,-66.68 -66.65,-66.68 -36.93,0 -66.66,29.87 -66.66,66.68 0,36.87 29.73,66.75 66.66,66.75 36.92,0 66.65,-29.88 66.65,-66.75z"/>
   <path class="fil0" d="M15080.27 9084.59c0,-36.83 -30.03,-66.71 -66.66,-66.71 -36.93,0 -66.65,29.88 -66.65,66.71 0,36.85 29.72,66.72 66.65,66.72 36.63,0 66.66,-29.87 66.66,-66.72z"/>
   <polygon class="fil0" points="19171.96,6400.2 19171.96,7147.29 18702.97,7147.29 17047.99,8802.27 15410.72,8802.27 15410.72,8832.29 17060.6,8832.29 18715.58,7177.31 19201.98,7177.31 19201.98,6400.2 "/>
   <path class="fil0" d="M780.71 10240.57c0,-36.85 -29.85,-66.72 -66.72,-66.72 -36.87,0 -66.72,29.87 -66.72,66.72 0,36.87 29.85,66.74 66.72,66.74 36.87,0 66.72,-29.87 66.72,-66.74z"/>
   <path class="fil0" d="M5198.5 11274.81c0,-36.84 -29.85,-66.71 -66.72,-66.71 -36.87,0 -66.72,29.87 -66.72,66.71 0,36.87 29.85,66.75 66.72,66.75 36.87,0 66.72,-29.88 66.72,-66.75z"/>
   <path class="fil0" d="M6257.42 12049.01c0,-36.84 -29.85,-66.72 -66.72,-66.72 -36.87,0 -66.72,29.88 -66.72,66.72 0,36.87 29.85,66.75 66.72,66.75 36.87,0 66.72,-29.88 66.72,-66.75z"/>
   <path class="fil0" d="M8230.67 13746.93c0,-36.84 -29.85,-66.72 -66.72,-66.72 -36.87,0 -66.71,29.88 -66.71,66.72 0,36.87 29.84,66.74 66.71,66.74 36.87,0 66.72,-29.87 66.72,-66.74z"/>
   <path class="fil0" d="M1014.7 5878.21c0,-36.84 -29.85,-66.72 -66.72,-66.72 -36.87,0 -66.72,29.88 -66.72,66.72 0,36.87 29.85,66.75 66.72,66.75 36.87,0 66.72,-29.88 66.72,-66.75z"/>
   <path class="fil0" d="M5108.06 14692.72c0,-36.84 -29.85,-66.72 -66.72,-66.72 -36.87,0 -66.72,29.88 -66.72,66.72 0,36.87 29.85,66.74 66.72,66.74 36.87,0 66.72,-29.87 66.72,-66.74z"/>
   <path class="fil0" d="M3938.07 7186.46c0,-36.84 -29.85,-66.72 -66.72,-66.72 -36.87,0 -66.71,29.88 -66.71,66.72 0,36.87 29.84,66.74 66.71,66.74 36.87,0 66.72,-29.87 66.72,-66.74z"/>
   <path class="fil0" d="M11463.37 4999.65c0,-36.85 -29.84,-66.72 -66.71,-66.72 -36.87,0 -66.72,29.87 -66.72,66.72 0,36.86 29.85,66.74 66.72,66.74 36.87,0 66.71,-29.88 66.71,-66.74z"/>
   <path class="fil0" d="M11713.54 10384.12c0,-36.84 -29.84,-66.72 -66.71,-66.72 -36.87,0 -66.72,29.88 -66.72,66.72 0,36.87 29.85,66.75 66.72,66.75 36.87,0 66.71,-29.88 66.71,-66.75z"/>
   <path class="fil0" d="M12145.27 10634.35c0,-36.85 -29.85,-66.72 -66.72,-66.72 -36.87,0 -66.72,29.87 -66.72,66.72 0,36.87 29.85,66.74 66.72,66.74 36.87,0 66.72,-29.87 66.72,-66.74z"/>
   <path class="fil0" d="M13174.8 9923.74c0,-36.84 -29.85,-66.71 -66.72,-66.71 -36.87,0 -66.71,29.87 -66.71,66.71 0,36.87 29.84,66.75 66.71,66.75 36.87,0 66.72,-29.88 66.72,-66.75z"/>
   <path class="fil0" d="M12505.57 11034.67c0,-36.84 -29.85,-66.72 -66.72,-66.72 -36.87,0 -66.72,29.88 -66.72,66.72 0,36.87 29.85,66.75 66.72,66.75 36.87,0 66.72,-29.88 66.72,-66.75z"/>
   <path class="fil0" d="M13811.63 11490.06c0,-36.84 -29.85,-66.72 -66.72,-66.72 -36.87,0 -66.71,29.88 -66.71,66.72 0,36.87 29.84,66.75 66.71,66.75 36.87,0 66.72,-29.88 66.72,-66.75z"/>
   <path class="fil0" d="M12315.41 12058.86c0,-36.84 -29.84,-66.72 -66.71,-66.72 -36.87,0 -66.72,29.88 -66.72,66.72 0,36.87 29.85,66.75 66.72,66.75 36.87,0 66.71,-29.88 66.71,-66.75z"/>
   <path class="fil0" d="M12394.15 15358.13c0,-36.85 -29.85,-66.72 -66.72,-66.72 -36.87,0 -66.71,29.87 -66.71,66.72 0,36.87 29.84,66.74 66.71,66.74 36.87,0 66.72,-29.87 66.72,-66.74z"/>
   <path class="fil0" d="M15167.71 15409.17c0,-36.84 -29.85,-66.72 -66.72,-66.72 -36.87,0 -66.72,29.88 -66.72,66.72 0,36.87 29.85,66.75 66.72,66.75 36.87,0 66.72,-29.88 66.72,-66.75z"/>
   <path class="fil0" d="M14666.15 4609.31c0,-36.84 -29.85,-66.71 -66.72,-66.71 -36.87,0 -66.72,29.87 -66.72,66.71 0,36.87 29.85,66.75 66.72,66.75 36.87,0 66.72,-29.88 66.72,-66.75z"/>
   <path class="fil0" d="M14676.06 6961.28c0,-36.85 -29.85,-66.72 -66.72,-66.72 -36.87,0 -66.72,29.87 -66.72,66.72 0,36.86 29.85,66.74 66.72,66.74 36.87,0 66.72,-29.88 66.72,-66.74z"/>
   <path class="fil0" d="M19253.68 6400.19c0,-36.84 -29.84,-66.72 -66.71,-66.72 -36.87,0 -66.72,29.88 -66.72,66.72 0,36.87 29.85,66.74 66.72,66.74 36.87,0 66.71,-29.87 66.71,-66.74z"/>
   <path class="fil1" d="M14040.77 11276.93c-247.87,224.35 -793.21,465.5 -1424.46,371.53 -859.51,-127.94 -1267.19,-768.86 -1315.95,-845.92 -162.53,-256.92 -264.12,-551.71 -283.2,-857.23 -36.93,-473.02 107.2,-961.21 414.07,-1325.63 341.76,-423.26 873.22,-697.4 1421.51,-689.5 404.92,-16.3 812.63,111.55 1136.05,355.64 431.67,317.82 723.48,825.22 753.03,1363.33 57.04,614.6 -210.08,1250.65 -701.05,1627.78zm735.58 1506.72l0.61 544.84 1678.68 0 1.83 -2831.33c0,0 3.26,-107 3.23,-270.26 -0.07,-359.17 -16.09,-990.63 -117.81,-1354.09 -222.33,-877.43 -826.38,-1626.92 -1575.62,-2118.92 -526.23,-343.67 -1148.33,-513.86 -1774.09,-530.39l-203.23 0c-148.24,3.9 -296.14,16.3 -442.45,36.98 -756.34,96.65 -1464.3,473.17 -1993.73,1018.79 -553.64,543.19 -928.25,1273.16 -1012.04,2047.08 -19.48,156.45 -29.46,314.52 -29.69,472.72 -0.99,685.55 181.15,1373.64 567.02,1943.89 394.27,578.36 836.57,1022.93 1477.91,1309.09 37.77,16.86 692.42,348.91 1774.71,276.44 839.95,-56.24 1644.63,-572.77 1644.67,-544.84z"/>
   <path class="fil2" d="M4276.48 11276.93c247.86,224.35 793.2,465.5 1424.45,371.53 859.52,-127.94 1267.2,-768.86 1315.95,-845.92 162.53,-256.92 264.12,-551.71 283.21,-857.23 36.93,-473.02 -107.21,-961.21 -414.08,-1325.63 -341.76,-423.26 -873.22,-697.4 -1421.51,-689.5 -404.92,-16.3 -812.63,111.55 -1136.05,355.64 -431.67,317.82 -723.48,825.22 -753.03,1363.33 -57.04,614.6 210.09,1250.65 701.06,1627.78zm-735.59 1506.72l8.55 1544.29 -1686.37 0 -3.3 -3830.78c0,0 -3.26,-107 -3.23,-270.26 0.08,-359.17 16.09,-990.63 117.81,-1354.09 222.33,-877.43 826.38,-1626.92 1575.62,-2118.92 526.24,-343.67 1148.33,-513.86 1774.09,-530.39l203.23 0c148.24,3.9 296.14,16.3 442.45,36.98 756.35,96.65 1464.3,473.17 1993.74,1018.79 553.64,543.19 928.24,1273.16 1012.04,2047.08 19.47,156.45 29.46,314.52 29.68,472.72 0.99,685.55 -181.14,1373.64 -567.02,1943.89 -394.27,578.36 -836.57,1022.93 -1477.91,1309.09 -37.77,16.86 -692.2,349.17 -1774.71,276.44 -840.21,-56.45 -1644.83,-572.94 -1644.67,-544.84z"/>
   <path class="fil3" d="M16838.13 13326.23l1.67 -6664.31 1678.97 0c2.05,1306.4 0.77,5358.27 1.79,6664.31l-1682.43 0z"/>
   <path class="fil3" d="M16838.02 6280.67l1.78 -1095.53 1678.97 0c2.05,201.24 0.77,894.34 1.79,1095.53l-1682.54 0z"/>
  </g>
 </g>
</svg>
