<?xml version="1.0" encoding="UTF-8" standalone="no"?>
<svg
   xmlns:dc="http://purl.org/dc/elements/1.1/"
   xmlns:cc="http://creativecommons.org/ns#"
   xmlns:rdf="http://www.w3.org/1999/02/22-rdf-syntax-ns#"
   xmlns:svg="http://www.w3.org/2000/svg"
   xmlns="http://www.w3.org/2000/svg"
   viewBox="0 0 841.88977 595.27557"
   id="svg134"
   height="595.27557"
   width="841.88977"
   version="1.1">
  <metadata
     id="metadata140">
    <rdf:RDF>
      <cc:Work
         rdf:about="">
        <dc:format>image/svg+xml</dc:format>
        <dc:type
           rdf:resource="http://purl.org/dc/dcmitype/StillImage" />
      </cc:Work>
    </rdf:RDF>
  </metadata>
  <defs
     id="defs138" />
  <path
     id="path2"
     style="fill:#ffffff;fill-rule:evenodd;stroke:#ffffff;stroke-width:0.56690001;stroke-linecap:butt;stroke-linejoin:miter;stroke-dasharray:none"
     d="M -0.347,0.9068 V 595.7677 H 842.2067 V 0.9068 Z" />
  <path
     id="path4"
     style="fill:#c6c7c7;fill-rule:evenodd"
     d="m 387.0775,76.2585 c 0,-1.585 -1.2867,-2.8702 -2.8717,-2.8702 -1.5837,0 -2.87,1.2852 -2.87,2.8702 0,1.5848 1.2863,2.87 2.87,2.87 1.585,0 2.8717,-1.2852 2.8717,-2.87 z" />
  <path
     id="path6"
     style="fill:#c6c7c7;fill-rule:evenodd"
     d="m 424.4014,233.9104 c 0,-1.5851 -1.2867,-2.8703 -2.8703,-2.8703 -1.5847,0 -2.8714,1.2852 -2.8714,2.8703 0,1.5847 1.2867,2.8699 2.8714,2.8699 1.5836,0 2.8703,-1.2852 2.8703,-2.8699 z" />
  <path
     id="path8"
     style="fill:#c6c7c7;fill-rule:evenodd"
     d="m 383.5602,79.1285 v 51.937 l 37.3162,37.3162 v 65.7531 h 1.2914 V 167.8457 L 384.8517,130.5309 V 79.1285 Z" />
  <path
     id="path10"
     style="fill:#c6c7c7;fill-rule:evenodd"
     d="m 319.6181,187.7161 c 0,-1.5847 -1.2856,-2.8703 -2.8703,-2.8703 -1.5851,0 -2.8703,1.2856 -2.8703,2.8703 0,1.5851 1.2852,2.8703 2.8703,2.8703 1.5847,0 2.8703,-1.2852 2.8703,-2.8703 z" />
  <path
     id="path12"
     style="fill:#c6c7c7;fill-rule:evenodd"
     d="m 407.7421,233.9104 c 0,-1.5851 -1.2866,-2.8703 -2.8714,-2.8703 -1.5836,0 -2.8702,1.2852 -2.8702,2.8703 0,1.5847 1.2866,2.8699 2.8702,2.8699 1.5848,0 2.8714,-1.2852 2.8714,-2.8699 z" />
  <path
     id="path14"
     style="fill:#c6c7c7;fill-rule:evenodd"
     d="M 404.8707,233.2645 H 340.7298 L 317.6507,210.1866 V 189.199 h -1.2917 v 21.5225 l 23.8358,23.8344 h 64.6759 z" />
  <path
     id="path16"
     style="fill:#c6c7c7;fill-rule:evenodd"
     d="m 334.2467,233.9104 c 0,-1.5851 -1.2867,-2.8703 -2.8703,-2.8703 -1.5851,0 -2.8714,1.2852 -2.8714,2.8703 0,1.5847 1.2863,2.8699 2.8714,2.8699 1.5836,0 2.8703,-1.2852 2.8703,-2.8699 z" />
  <path
     id="path18"
     style="fill:#c6c7c7;fill-rule:evenodd"
     d="m 212.6968,94.9159 c 0,-1.5836 -1.2866,-2.8703 -2.8717,-2.8703 -1.5836,0 -2.8699,1.2867 -2.8699,2.8703 0,1.5862 1.2863,2.8714 2.8699,2.8714 1.5851,0 2.8717,-1.2852 2.8717,-2.8714 z" />
  <path
     id="path20"
     style="fill:#c6c7c7;fill-rule:evenodd"
     d="m 209.1796,94.9159 v 44.7304 l 70.7881,70.7885 h 26.9192 l 23.9223,23.9223 0.9132,-0.9132 -24.3009,-24.3009 H 280.5023 L 210.471,139.1117 V 94.9159 Z" />
  <path
     id="path22"
     style="fill:#c6c7c7;fill-rule:evenodd"
     d="m 243.6189,282.1218 c 0,-1.5847 -1.2852,-2.8699 -2.8703,-2.8699 -1.5847,0 -2.8699,1.2852 -2.8699,2.8699 0,1.5851 1.2852,2.8703 2.8699,2.8703 1.5851,0 2.8703,-1.2852 2.8703,-2.8703 z" />
  <path
     id="path24"
     style="fill:#c6c7c7;fill-rule:evenodd"
     d="m 311.7293,304.2115 c 0,-1.5851 -1.2863,-2.8688 -2.8714,-2.8688 -1.5836,0 -2.8702,1.2837 -2.8702,2.8688 0,1.5862 1.2866,2.8703 2.8702,2.8703 1.5851,0 2.8714,-1.2841 2.8714,-2.8703 z" />
  <path
     id="path26"
     style="fill:#c6c7c7;fill-rule:evenodd"
     d="m 240.3612,282.4166 22.4848,22.4847 h 48.1613 v -1.2917 H 263.3809 L 241.2744,281.503 Z" />
  <path
     id="path28"
     style="fill:#c6c7c7;fill-rule:evenodd"
     d="m 148.5116,187.273 v 104.9668 h 90.9379 l 23.6718,23.6718 h 46.7857 v -1.2914 H 263.6559 L 239.9841,290.9483 H 149.8034 V 187.273 Z" />
  <path
     id="path30"
     style="fill:#c6c7c7;fill-rule:evenodd"
     d="m 203.3823,363.8045 h 29.1692 l 31.7917,-31.7917 h 45.2873 v -1.2918 h -45.8223 l -31.7913,31.7917 h -28.6346 z" />
  <path
     id="path32"
     style="fill:#c6c7c7;fill-rule:evenodd"
     d="m 308.8052,338.292 h -39.6299 l -20.8828,20.8843 v 37.2891 h 1.2914 v -36.7545 l 20.1274,-20.1271 h 39.0939 z" />
  <path
     id="path34"
     style="fill:#c6c7c7;fill-rule:evenodd"
     d="m 483.6663,325.4858 h 43.3211 l 19.9956,-19.9942 -0.904,-0.9147 -19.6211,19.6175 h -42.7916 z" />
  <path
     id="path36"
     style="fill:#c6c7c7;fill-rule:evenodd"
     d="m 461.923,235.282 v -20.0217 h 65.0644 l 37.0335,-37.0291 h 47.0958 v -1.2918 h -47.6256 l -37.0332,37.0281 -65.8267,0.001 v 21.3131 z" />
  <path
     id="path38"
     style="fill:#c6c7c7;fill-rule:evenodd"
     d="m 610.0446,76.4017 v 91.497 h -48.2844 l -37.6662,37.6754 h -72.5035 v 29.7079 h 1.2918 v -28.4165 h 71.7415 l 37.6791,-37.675 H 611.336 V 76.4017 Z" />
  <path
     id="path40"
     style="fill:#c6c7c7;fill-rule:evenodd"
     d="m 502.2393,334.9593 h 134.3429 v 1.2918 H 502.2393 Z" />
  <path
     id="path42"
     style="fill:#c6c7c7;fill-rule:evenodd"
     d="m 307.7792,385.1201 v 79.3884 l -45.0467,45.046 h -63.241 v 1.2914 h 63.7755 l 45.804,-45.8025 v -79.9233 z" />
  <path
     id="path44"
     style="fill:#c6c7c7;fill-rule:evenodd"
     d="m 333.1833,385.5503 h 1.2918 v 83.9613 h -1.2918 z" />
  <path
     id="path46"
     style="fill:#c6c7c7;fill-rule:evenodd"
     d="m 379.2535,385.9817 v 24.8098 l 17.8438,17.8427 0.9132,-0.9147 -17.4652,-17.4626 v -24.2752 z" />
  <path
     id="path48"
     style="fill:#c6c7c7;fill-rule:evenodd"
     d="m 517.7397,353.4735 h 36.3283 l 19.4014,19.4024 0.9172,-0.9142 -19.7763,-19.78 h -36.8706 z" />
  <path
     id="path50"
     style="fill:#c6c7c7;fill-rule:evenodd"
     d="m 479.1465,407.9343 v 22.6565 l 52.956,52.9601 v 35.2028 l -19.6079,19.6159 0.9041,0.9147 19.9956,-19.9957 V 483.016 l -52.956,-52.9601 v -22.1216 z" />
  <path
     id="path52"
     style="fill:#c6c7c7;fill-rule:evenodd"
     d="m 508.9136,396.8889 v 22.2263 l 57.9163,57.9127 v 38.1052 l 26.5319,26.5355 h 38.906 v -1.2914 h -38.3766 l -25.7695,-25.7787 v -38.1056 l -57.9163,-57.9123 v -21.6917 z" />
  <path
     id="path54"
     style="fill:#c6c7c7;fill-rule:evenodd"
     d="m 472.9035,92.5484 h -73.8429 v 34.9288 l 40.0429,40.0429 v 65.61 h 1.2918 v -66.1445 l -40.0429,-40.043 V 93.8398 h 72.5511 z" />
  <path
     id="path56"
     style="fill:#c6c7c7;fill-rule:evenodd"
     d="m 22.7444,130.9908 v 56.0625 l 58.7094,58.7084 h 55.4287 v -1.2918 H 81.9888 L 24.0362,186.5173 v -55.5265 z" />
  <path
     id="path58"
     style="fill:#c6c7c7;fill-rule:evenodd"
     d="m 12.5994,318.6643 v 45.662 h 88.1412 v -1.2918 H 13.8912 v -44.3702 z" />
  <path
     id="path60"
     style="fill:#c6c7c7;fill-rule:evenodd"
     d="M 106.4471,375.7155 H 29.7185 v 52.0026 h 1.2918 v -50.7112 h 75.4368 z" />
  <path
     id="path62"
     style="fill:#c6c7c7;fill-rule:evenodd"
     d="m 109.1003,376.0783 c 0,-1.5851 -1.2838,-2.8703 -2.87,-2.8703 -1.5861,0 -2.8702,1.2852 -2.8702,2.8703 0,1.5862 1.2841,2.8714 2.8702,2.8714 1.5862,0 2.87,-1.2852 2.87,-2.8714 z" />
  <path
     id="path64"
     style="fill:#c6c7c7;fill-rule:evenodd"
     d="m 32.8898,427.7466 c 0,-1.5851 -1.2841,-2.8703 -2.8703,-2.8703 -1.5862,0 -2.8703,1.2852 -2.8703,2.8703 0,1.5862 1.2841,2.8714 2.8703,2.8714 1.5862,0 2.8703,-1.2852 2.8703,-2.8714 z" />
  <path
     id="path66"
     style="fill:#c6c7c7;fill-rule:evenodd"
     d="m 657.8696,411.9749 h 51.6039 l 38.824,38.8324 1.573,-0.257 -39.8675,-39.8672 h -52.1334 z" />
  <path
     id="path68"
     style="fill:#c6c7c7;fill-rule:evenodd"
     d="m 660.7374,411.8186 c 0,-1.5851 -1.2918,-2.8703 -2.8678,-2.8703 -1.5887,0 -2.8677,1.2852 -2.8677,2.8703 0,1.5847 1.279,2.8714 2.8677,2.8714 1.576,0 2.8678,-1.2867 2.8678,-2.8714 z" />
  <path
     id="path70"
     style="fill:#c6c7c7;fill-rule:evenodd"
     d="m 643.3253,269.0886 h 71.1733 l 73.6529,73.6467 h 24.1552 v -27.8054 h -1.2918 v 26.5139 h -22.3335 l -73.6533,-73.647 h -71.7028 z" />
  <path
     id="path72"
     style="fill:#c6c7c7;fill-rule:evenodd"
     d="m 814.5285,314.9285 c 0,-1.5836 -1.279,-2.8688 -2.8677,-2.8688 -1.5888,0 -2.8677,1.2852 -2.8677,2.8688 0,1.5862 1.2789,2.8718 2.8677,2.8718 1.5887,0 2.8677,-1.2856 2.8677,-2.8718 z" />
  <path
     id="path74"
     style="fill:#c6c7c7;fill-rule:evenodd"
     d="m 631.3766,268.9322 c 0,-1.5847 -1.2918,-2.8702 -2.8677,-2.8702 -1.5888,0 -2.8674,1.2855 -2.8674,2.8702 0,1.5851 1.2786,2.8703 2.8674,2.8703 1.5759,0 2.8677,-1.2852 2.8677,-2.8703 z" />
  <path
     id="path76"
     style="fill:#c6c7c7;fill-rule:evenodd"
     d="m 807.4055,153.447 v 32.1403 H 787.2289 L 716.03,256.7862 h -70.437 v 1.2918 h 70.9793 l 71.1989,-71.199 h 20.9257 v -33.432 z" />
  <path
     id="path78"
     style="fill:#c6c7c7;fill-rule:evenodd"
     d="m 390.1554,592.2807 -0.003,-0.0158 z" />
  <path
     id="path80"
     style="fill:#c6c7c7;fill-rule:evenodd"
     d="m 390.2616,592.9497 h 0.002 c -0.0413,-0.1912 -0.0725,-0.3797 -0.0981,-0.5672 0.0256,0.1886 0.0568,0.3786 0.0956,0.5672 z" />
  <path
     id="path82"
     style="fill:#c6c7c7;fill-rule:evenodd"
     d="m 390.954,594.891 -0.0143,-0.0256 z" />
  <path
     id="path84"
     style="fill:#c6c7c7;fill-rule:evenodd"
     d="m 390.8866,594.7632 -0.0516,-0.1084 z" />
  <path
     id="path86"
     style="fill:#c6c7c7;fill-rule:evenodd"
     d="m 390.4553,593.6977 c 0.1021,0.3241 0.2259,0.6367 0.368,0.9352 -0.1447,-0.305 -0.2659,-0.6188 -0.3655,-0.9352 z" />
  <path
     id="path88"
     style="fill:#c6c7c7;fill-rule:evenodd"
     d="m 16.1946,318.6635 c 0,-1.5851 -1.2841,-2.8703 -2.8703,-2.8703 -1.5862,0 -2.8703,1.2852 -2.8703,2.8703 0,1.5862 1.2841,2.8714 2.8703,2.8714 1.5862,0 2.8703,-1.2852 2.8703,-2.8714 z" />
  <path
     id="path90"
     style="fill:#c6c7c7;fill-rule:evenodd"
     d="m 206.2524,363.1578 c 0,-1.5851 -1.2841,-2.8703 -2.8702,-2.8703 -1.5862,0 -2.8703,1.2852 -2.8703,2.8703 0,1.5862 1.2841,2.8714 2.8703,2.8714 1.5861,0 2.8702,-1.2852 2.8702,-2.8714 z" />
  <path
     id="path92"
     style="fill:#c6c7c7;fill-rule:evenodd"
     d="m 251.8083,396.4646 c 0,-1.5851 -1.2841,-2.8703 -2.8703,-2.8703 -1.5861,0 -2.8702,1.2852 -2.8702,2.8703 0,1.5862 1.2841,2.8714 2.8702,2.8714 1.5862,0 2.8703,-1.2852 2.8703,-2.8714 z" />
  <path
     id="path94"
     style="fill:#c6c7c7;fill-rule:evenodd"
     d="m 336.6997,469.5109 c 0,-1.5851 -1.2841,-2.8703 -2.8703,-2.8703 -1.5861,0 -2.8702,1.2852 -2.8702,2.8703 0,1.5862 1.2841,2.8714 2.8702,2.8714 1.5862,0 2.8703,-1.2852 2.8703,-2.8714 z" />
  <path
     id="path96"
     style="fill:#c6c7c7;fill-rule:evenodd"
     d="m 26.261,130.9904 c 0,-1.5851 -1.2842,-2.8703 -2.8703,-2.8703 -1.5862,0 -2.8703,1.2852 -2.8703,2.8703 0,1.5862 1.2841,2.8714 2.8703,2.8714 1.5861,0 2.8703,-1.2852 2.8703,-2.8714 z" />
  <path
     id="path98"
     style="fill:#c6c7c7;fill-rule:evenodd"
     d="m 202.3616,510.1997 c 0,-1.5851 -1.2841,-2.8703 -2.8703,-2.8703 -1.5861,0 -2.8702,1.2852 -2.8702,2.8703 0,1.5861 1.2841,2.8713 2.8702,2.8713 1.5862,0 2.8703,-1.2852 2.8703,-2.8713 z" />
  <path
     id="path100"
     style="fill:#c6c7c7;fill-rule:evenodd"
     d="m 152.0277,187.2726 c 0,-1.5851 -1.2841,-2.8703 -2.8703,-2.8703 -1.5862,0 -2.8703,1.2852 -2.8703,2.8703 0,1.5862 1.2841,2.8714 2.8703,2.8714 1.5862,0 2.8703,-1.2852 2.8703,-2.8714 z" />
  <path
     id="path102"
     style="fill:#c6c7c7;fill-rule:evenodd"
     d="m 475.774,93.1935 c 0,-1.5851 -1.2841,-2.8703 -2.8703,-2.8703 -1.5862,0 -2.8703,1.2852 -2.8703,2.8703 0,1.5862 1.2841,2.8714 2.8703,2.8714 1.5862,0 2.8703,-1.2852 2.8703,-2.8714 z" />
  <path
     id="path104"
     style="fill:#c6c7c7;fill-rule:evenodd"
     d="m 486.5365,324.8394 c 0,-1.5851 -1.2841,-2.8703 -2.8702,-2.8703 -1.5862,0 -2.8703,1.2852 -2.8703,2.8703 0,1.5861 1.2841,2.8713 2.8703,2.8713 1.5861,0 2.8702,-1.2852 2.8702,-2.8713 z" />
  <path
     id="path106"
     style="fill:#c6c7c7;fill-rule:evenodd"
     d="m 505.1097,335.6042 c 0,-1.5851 -1.2841,-2.8703 -2.8703,-2.8703 -1.5861,0 -2.8703,1.2852 -2.8703,2.8703 0,1.5862 1.2842,2.8714 2.8703,2.8714 1.5862,0 2.8703,-1.2852 2.8703,-2.8714 z" />
  <path
     id="path108"
     style="fill:#c6c7c7;fill-rule:evenodd"
     d="m 549.4013,305.0334 c 0,-1.5851 -1.2841,-2.8703 -2.8702,-2.8703 -1.5862,0 -2.8703,1.2852 -2.8703,2.8703 0,1.5862 1.2841,2.8714 2.8703,2.8714 1.5861,0 2.8702,-1.2852 2.8702,-2.8714 z" />
  <path
     id="path110"
     style="fill:#c6c7c7;fill-rule:evenodd"
     d="m 520.6101,352.8267 c 0,-1.5851 -1.2841,-2.8703 -2.8703,-2.8703 -1.5861,0 -2.8702,1.2852 -2.8702,2.8703 0,1.5861 1.2841,2.8713 2.8702,2.8713 1.5862,0 2.8703,-1.2852 2.8703,-2.8713 z" />
  <path
     id="path112"
     style="fill:#c6c7c7;fill-rule:evenodd"
     d="m 576.7985,372.418 c 0,-1.5851 -1.2841,-2.8703 -2.8703,-2.8703 -1.5862,0 -2.8703,1.2852 -2.8703,2.8703 0,1.5862 1.2841,2.8714 2.8703,2.8714 1.5862,0 2.8703,-1.2852 2.8703,-2.8714 z" />
  <path
     id="path114"
     style="fill:#c6c7c7;fill-rule:evenodd"
     d="m 512.4296,396.8884 c 0,-1.5851 -1.2841,-2.8703 -2.8703,-2.8703 -1.5861,0 -2.8702,1.2852 -2.8702,2.8703 0,1.5862 1.2841,2.8714 2.8702,2.8714 1.5862,0 2.8703,-1.2852 2.8703,-2.8714 z" />
  <path
     id="path116"
     style="fill:#c6c7c7;fill-rule:evenodd"
     d="m 515.817,538.8262 c 0,-1.5851 -1.2841,-2.8703 -2.8703,-2.8703 -1.5861,0 -2.8702,1.2852 -2.8702,2.8703 0,1.5862 1.2841,2.8714 2.8702,2.8714 1.5862,0 2.8703,-1.2852 2.8703,-2.8714 z" />
  <path
     id="path118"
     style="fill:#c6c7c7;fill-rule:evenodd"
     d="m 635.1383,541.0222 c 0,-1.5851 -1.2841,-2.8703 -2.8703,-2.8703 -1.5862,0 -2.8703,1.2852 -2.8703,2.8703 0,1.5862 1.2841,2.8714 2.8703,2.8714 1.5862,0 2.8703,-1.2852 2.8703,-2.8714 z" />
  <path
     id="path120"
     style="fill:#c6c7c7;fill-rule:evenodd"
     d="m 613.5607,76.4011 c 0,-1.5851 -1.2841,-2.8703 -2.8703,-2.8703 -1.5862,0 -2.8703,1.2852 -2.8703,2.8703 0,1.5862 1.2841,2.8714 2.8703,2.8714 1.5862,0 2.8703,-1.2852 2.8703,-2.8714 z" />
  <path
     id="path122"
     style="fill:#c6c7c7;fill-rule:evenodd"
     d="m 613.987,177.5849 c 0,-1.5851 -1.2841,-2.8703 -2.8702,-2.8703 -1.5862,0 -2.8703,1.2852 -2.8703,2.8703 0,1.5862 1.2841,2.8714 2.8703,2.8714 1.5861,0 2.8702,-1.2852 2.8702,-2.8714 z" />
  <path
     id="path124"
     style="fill:#c6c7c7;fill-rule:evenodd"
     d="m 810.9212,153.4465 c 0,-1.5851 -1.2841,-2.8703 -2.8703,-2.8703 -1.5862,0 -2.8703,1.2852 -2.8703,2.8703 0,1.5861 1.2841,2.8713 2.8703,2.8713 1.5862,0 2.8703,-1.2852 2.8703,-2.8713 z" />
  <path
     id="path126"
     style="fill:#2b2b2a;fill-rule:evenodd"
     d="m 586.656,363.2488 c -10.6634,9.6517 -34.1243,20.0262 -61.2816,15.9837 -36.9771,-5.504 -54.5159,-33.0772 -56.6133,-36.3926 -6.9925,-11.0526 -11.363,-23.735 -12.1839,-36.8787 -1.5888,-20.35 4.612,-41.3521 17.8141,-57.03 14.7027,-18.2092 37.5667,-30.003 61.1546,-29.6631 17.4201,-0.701 34.9603,4.799 48.8741,15.3 18.5709,13.6729 31.125,35.5019 32.3961,58.6519 2.4539,26.441 -9.038,53.8041 -30.1601,70.0288 z m 31.6457,64.8207 0.0264,23.4397 h 72.2185 l 0.0785,-121.807 c 0,0 0.1403,-4.6032 0.1389,-11.6269 -0.003,-15.4516 -0.6919,-42.6178 -5.068,-58.2542 -9.565,-37.7479 -35.5519,-69.992 -67.7849,-91.158 -22.6392,-14.7852 -49.4025,-22.1068 -76.3231,-22.818 h -8.7432 c -6.3777,0.1678 -12.7403,0.7013 -19.0347,1.5911 -32.5389,4.1578 -62.9957,20.3558 -85.7727,43.829 -23.8181,23.3688 -39.9342,54.773 -43.539,88.0679 -0.8379,6.7306 -1.2673,13.5309 -1.277,20.3369 -0.0425,29.493 7.793,59.0952 24.3938,83.628 16.9617,24.8816 35.9901,44.0075 63.5811,56.3184 1.6251,0.7251 29.7888,15.0103 76.3498,11.8928 36.1358,-2.4194 70.7539,-24.6413 70.7556,-23.4397 z" />
  <path
     id="path128"
     style="fill:#e82c5e;fill-rule:evenodd"
     d="m 166.5862,363.2488 c 10.6633,9.6517 34.1243,20.0262 61.2816,15.9837 36.9771,-5.504 54.5159,-33.0772 56.6133,-36.3926 6.9925,-11.0526 11.3629,-23.735 12.1838,-36.8787 1.5889,-20.35 -4.6119,-41.3521 -17.814,-57.03 -14.7027,-18.2092 -37.5667,-30.003 -61.1546,-29.6631 -17.4201,-0.701 -34.9603,4.799 -48.8742,15.3 -18.5709,13.6729 -31.1249,35.5019 -32.396,58.6519 -2.4539,26.441 9.038,53.8041 30.1601,70.0288 z m -31.6457,64.8207 0.3676,66.437 H 62.7591 L 62.617,329.7022 c 0,0 -0.1403,-4.6032 -0.1389,-11.6269 0.0032,-15.4516 0.692,-42.6178 5.0681,-58.2542 9.5649,-37.7479 35.5518,-69.992 67.7849,-91.158 22.6392,-14.7852 49.4025,-22.1068 76.3231,-22.818 h 8.7432 c 6.3777,0.1678 12.7403,0.7013 19.0346,1.5911 32.5389,4.1578 62.9958,20.3558 85.7727,43.829 23.8181,23.3688 39.9342,54.773 43.539,88.0679 0.838,6.7306 1.2674,13.5309 1.2771,20.3369 0.0425,29.493 -7.7931,59.0952 -24.3939,83.628 -16.9616,24.8816 -35.99,44.0075 -63.5811,56.3184 -1.6251,0.7251 -29.7793,15.0216 -76.3497,11.8928 -36.1472,-2.4288 -70.7624,-24.6487 -70.7556,-23.4397 z" />
  <path
     id="path130"
     style="fill:#03ae63;fill-rule:evenodd"
     d="m 707.0014,451.4119 0.072,-286.7054 h 72.2311 c 0.0881,56.2025 0.0329,230.5182 0.0771,286.7054 z" />
  <path
     id="path132"
     style="fill:#03ae63;fill-rule:evenodd"
     d="m 706.9966,148.3044 0.0768,-47.1308 h 72.2311 c 0.0881,8.6577 0.0329,38.4755 0.0771,47.1308 z" />
</svg>
